<?xml version="1.0" encoding="utf-8"?>
<!-- Generator: Adobe Illustrator 17.0.0, SVG Export Plug-In . SVG Version: 6.00 Build 0)  -->
<!DOCTYPE svg PUBLIC "-//W3C//DTD SVG 1.1//EN" "http://www.w3.org/Graphics/SVG/1.1/DTD/svg11.dtd">
<svg version="1.1" id="Capa_1" xmlns="http://www.w3.org/2000/svg" xmlns:xlink="http://www.w3.org/1999/xlink" x="0px" y="0px"
	 width="300px" height="300px" viewBox="0 0 300 300" enable-background="new 0 0 300 300" xml:space="preserve">
<g>
	<path fill="#FF625A" d="M150.226,149.94C150.226,69.475,214,3.951,294,1.375V2H6v0.205c74,8.218,132.137,71.22,132.137,147.736
		S80,289.458,6,297.676V299h288v-0.494C214,295.929,150.226,230.406,150.226,149.94z"/>
	<path fill="#FF625A" d="M150.29,149.774C69.824,149.774,4.301,85,1.724,6H1v288h1.554c8.218-75,71.22-132.137,147.736-132.137
		S289.808,219,298.025,294H298V6h0.855C296.279,85,230.755,149.774,150.29,149.774z"/>
</g>
</svg>
